# xmcd
#
# Track frame offsets:
#	150
#	20328
#	43605
#	63182
#	95431
#	115459
#	131842
#	148913
#	166481
#	191220
#	205425
#	230636
#	247546
#	263483
#	278560
#	296289
#
# Disc length: 4245 seconds
#
# Revision: 0
# Processed by: cddbd v1.5.2PL0 Copyright (c) Steve Scherf et al.
# Submitted via: audiograbber 1.83.01
#
DISCID=e9109310
DTITLE=hip hop - hiphop
DYEAR=1900
DGENRE=
TTITLE0=bla
TTITLE1=bli
TTITLE2=roll on
TTITLE3=a
TTITLE4=b
TTITLE5=c
TTITLE6=d
TTITLE7=e
TTITLE8=f
TTITLE9=g
TTITLE10=h
TTITLE11=i
TTITLE12=j
TTITLE13=k
TTITLE14=l
TTITLE15=m
EXTD=
EXTT0=
EXTT1=
EXTT2=
EXTT3=
EXTT4=
EXTT5=
EXTT6=
EXTT7=
EXTT8=
EXTT9=
EXTT10=
EXTT11=
EXTT12=
EXTT13=
EXTT14=
EXTT15=
PLAYORDER=
